<svg xmlns="http://www.w3.org/2000/svg" viewBox="0 0 16 16" fill="#000000" id="Mouse-Scroll-Thin--Streamline-Phosphor-Thin" height="16" width="16">
  <desc>
    Mouse Scroll Thin Streamline Icon: https://streamlinehq.com
  </desc>
  <path d="M9.16148125 0.16h-2.3229625c-2.40434375 0.0028 -4.35275625 1.9512125 -4.35555625 4.35555625v6.9688875c0.0028 2.40434375 1.9512125 4.35275625 4.35555625 4.35555625h2.3229625c2.40434375 -0.0028 4.35275625 -1.9512125 4.35555625 -4.35555625V4.51555625c-0.0028 -2.40434375 -1.9512125 -4.35275625 -4.35555625 -4.35555625Zm3.7748125 11.32444375c-0.0024 2.083775 -1.6910375 3.7724125 -3.7748125 3.77481875h-2.3229625c-2.083775 -0.00240625 -3.7724125 -1.69104375 -3.7748125 -3.77481875V4.51555625c0.0024 -2.083775 1.6910375 -3.7724125 3.7748125 -3.7748125h2.3229625c2.083775 0.0024 3.7724125 1.6910375 3.7748125 3.7748125Zm-4.645925 -7.429125v7.8893625l1.24641875 -1.2464125c0.15814375 -0.15815 0.42818125 -0.08579375 0.48606875 0.1302375 0.0268625 0.1002625 -0.0018 0.2072375 -0.07519375 0.2806375l-1.742225 1.74221875c-0.113425 0.11355 -0.29745 0.11355 -0.410875 0l-1.74221875 -1.74221875c-0.15815 -0.15815 -0.08579375 -0.4281875 0.1302375 -0.486075 0.1002625 -0.0268625 0.2072375 0.0018 0.28063125 0.0752l1.24641875 1.2464125V4.05531875l-1.24641875 1.2464125c-0.15814375 0.15815 -0.42818125 0.08579375 -0.48606875 -0.1302375 -0.0268625 -0.1002625 0.0018 -0.2072375 0.07519375 -0.28063125l1.742225 -1.742225c0.113425 -0.11355 0.29745 -0.11355 0.410875 0l1.742225 1.742225c0.15814375 0.15814375 0.0857875 0.42818125 -0.13024375 0.48606875 -0.1002625 0.0268625 -0.2072375 -0.0018 -0.28063125 -0.0752Z" stroke-width="0.0625"></path>
</svg>