<svg xmlns="http://www.w3.org/2000/svg" viewBox="0 0 16 16" fill="#000000" id="X-Light--Streamline-Phosphor" height="16" width="16">
  <desc>
    X Light Streamline Icon: https://streamlinehq.com
  </desc>
  <path d="M15.6480375 14.7956875c0.33965 0.3164875 0.20933125 0.881975 -0.23458125 1.01788125 -0.22063125 0.06754375 -0.46046875 0.00328125 -0.61776875 -0.16553125L7.98495 8.8383 1.17420625 15.6480375c-0.33965 0.3164875 -0.8945375 0.14660625 -0.9988 -0.3057875 -0.04498125 -0.1952 0.00989375 -0.4 0.14645625 -0.5465625l6.80973125 -6.8107375L0.3218625 1.17420625C0.005375 0.83455625 0.17525625 0.27966875 0.62764375 0.17540625c0.19520625 -0.04498125 0.40000625 0.00989375 0.5465625 0.14645625l6.81074375 6.80973125L14.7956875 0.3218625c0.33965625 -0.3164875 0.89454375 -0.14660625 0.9988 0.30578125 0.0449875 0.19520625 -0.0098875 0.40000625 -0.14645 0.5465625L8.8383 7.98495Z" stroke-width="0.0625"></path>
</svg>