<svg xmlns="http://www.w3.org/2000/svg" viewBox="0 0 16 16" fill="#000000" id="File-Plus-Light--Streamline-Phosphor" height="16" width="16">
  <desc>
    File Plus Light Streamline Icon: https://streamlinehq.com
  </desc>
  <path d="m14.47491875 4.59959375 -4.3043125 -4.3043125c-0.08640625 -0.0865125 -0.20363125 -0.135175 -0.3259 -0.13528125H2.46588125c-0.5943 0 -1.076075 0.481775 -1.076075 1.076075v13.52784375c0 0.59430625 0.481775 1.07608125 1.076075 1.07608125h11.0682375c0.5943 0 1.076075 -0.481775 1.076075 -1.07608125V4.9254875c-0.00010625 -0.12226875 -0.0487625 -0.23949375 -0.135275 -0.32589375Zm-4.1690375 -2.86544375 2.7301625 2.7301625h-2.7301625Zm3.2282375 13.18349375H2.46588125c-0.0849 0.00000625 -0.153725 -0.06881875 -0.153725 -0.153725V1.23608125c0 -0.08490625 0.068825 -0.15373125 0.153725 -0.15373125h6.91765v3.8431375c0 0.25470625 0.206475 0.46118125 0.461175 0.46118125h3.8431375v9.37725c0 0.0849 -0.06883125 0.153725 -0.153725 0.15373125Zm-3.2282375 -5.0729375c0 0.25469375 -0.20648125 0.4611625 -0.461175 0.461175h-1.38353125v1.38353125c0 0.3550125 -0.3843125 0.57689375 -0.6917625 0.3993875 -0.1426875 -0.08238125 -0.2305875 -0.234625 -0.2305875 -0.3993875v-1.38353125H6.15529375c-0.3550125 0 -0.5769 -0.3843125 -0.3993875 -0.6917625 0.08238125 -0.1426875 0.234625 -0.2305875 0.3993875 -0.2305875h1.38353125V8c0 -0.3550125 0.3843125 -0.5769 0.6917625 -0.39939375 0.1426875 0.08238125 0.2305875 0.23463125 0.2305875 0.39939375v1.38353125h1.38353125c0.25469375 0.00000625 0.461175 0.20648125 0.461175 0.461175Z" stroke-width="0.0625"></path>
</svg>