<svg xmlns="http://www.w3.org/2000/svg" viewBox="0 0 16 16" fill="#000000" id="Caret-Circle-Down-Thin--Streamline-Phosphor-Thin" height="16" width="16">
  <desc>
    Caret Circle Down Thin Streamline Icon: https://streamlinehq.com
  </desc>
  <path d="M8 0.16c-6.0352375 0 -9.80725625 6.53333125 -6.7896375 11.76 3.01761875 5.22666875 10.56165625 5.22666875 13.579275 0C15.47774375 10.72816875 15.84 9.37620625 15.84 8 15.83525 3.67205625 12.32794375 0.16475 8 0.16Zm0 15.0528c-5.55241875 0 -9.022675 -6.01066875 -6.24646875 -10.8192 2.77620625 -4.80853125 9.71673125 -4.80853125 12.4929375 0 0.63305625 1.09648125 0.96633125 2.3402875 0.96633125 3.6064 -0.00431875 3.981725 -3.231075 7.20848125 -7.2128 7.2128Zm3.357875 -8.68906875c0.12263125 0.12249375 0.12263125 0.32124375 0 0.44374375l-3.136 3.13599375c-0.1225 0.1226375 -0.32125 0.1226375 -0.44374375 0l-3.136 -3.13599375c-0.1708 -0.1708 -0.09265625 -0.46244375 0.14065625 -0.52495625 0.10828125 -0.0290125 0.22381875 0.00194375 0.3030875 0.0812125L8 9.43785625l2.91413125 -2.914125c0.12249375 -0.1226375 0.32124375 -0.1226375 0.4437375 0Z" stroke-width="0.0625"></path>
</svg>