<svg xmlns="http://www.w3.org/2000/svg" viewBox="0 0 16 16" fill="#000000" id="Note-Pencil-Light--Streamline-Phosphor" height="16" width="16">
  <desc>
    Note Pencil Light Streamline Icon: https://streamlinehq.com
  </desc>
  <path d="M15.69961875 2.86045 13.13955 0.30038125c-0.18740625 -0.187175 -0.4910125 -0.187175 -0.67841875 0L4.780925 7.9805875c-0.09004375 0.08993125 -0.14069375 0.21194375 -0.14080625 0.3392125v2.56006875c0 0.2651125 0.2149 0.480025 0.4800125 0.4800125h2.56006875c0.12726875 -0.0001125 0.24928125 -0.0507625 0.3392125 -0.14080625L15.69961875 3.53886875c0.187175 -0.18740625 0.187175 -0.4910125 0 -0.67841875ZM7.481 10.39985625H5.60014375V8.519l5.28014375 -5.2801375 1.88085 1.88085Zm5.95935625 -5.9593625 -1.88085 -1.88085 1.24083125 -1.2408375 1.88085625 1.88085625Zm1.76005 3.87930625v6.40016875c0 0.61855625 -0.501475 1.12000625 -1.12003125 1.12003125H1.28003125c-0.61859375 0.000025 -1.12003125 -0.5014375 -1.12003125 -1.12003125V1.919625c0 -0.61859375 0.5014375 -1.12005625 1.12003125 -1.12003125h6.40016875c0.36951875 0.000425 0.60000625 0.4007 0.4148875 0.72049375 -0.085725 0.14808125 -0.24378125 0.2393375 -0.4148875 0.23953125H1.28003125c-0.08836875 0 -0.16000625 0.0716375 -0.16000625 0.16000625v12.80034375c0 0.088375 0.0716375 0.1600125 0.16000625 0.16000625H14.080375c0.08836875 -0.00000625 0.16000625 -0.0716375 0.16000625 -0.16000625V8.3198c0.00041875 -0.36951875 0.40069375 -0.60000625 0.72049375 -0.41488125 0.14808125 0.08571875 0.2393375 0.24378125 0.23953125 0.41488125Z" stroke-width="0.0625"></path>
</svg>