<svg xmlns="http://www.w3.org/2000/svg" viewBox="0 0 16 16" fill="#000000" id="Funnel-Light--Streamline-Phosphor" height="16" width="16">
  <desc>
    Funnel Light Streamline Icon: https://streamlinehq.com
  </desc>
  <path d="M15.74631875 1.41495c-0.168675 -0.39156875 -0.555375 -0.64411875 -0.98171875 -0.64115625H1.2342375c-0.8285125 0.0015875 -1.344625 0.899475 -0.92899375 1.6162 0.03829375 0.06603125 0.0835 0.1278 0.13485625 0.1842625l0.0046125 0.00538125 5.24839375 5.60356875v5.9672c0.00035 0.82851875 0.89746875 1.3459625 1.6148125 0.9314 0.0199875 -0.01155 0.0396 -0.02374375 0.05880625 -0.03655625l2.4600625 -1.6397875c0.299325 -0.19970625 0.47905 -0.53578125 0.47894375 -0.8956125v-4.32664375l5.2530125 -5.612025c0.288525 -0.313025 0.36234375 -0.76804375 0.187575 -1.15623125Zm-0.86563125 0.533525 -5.3729375 5.73656875c-0.08000625 0.08545625 -0.12453125 0.19813125 -0.12454375 0.31519375v4.5096125c0.0001625 0.05155625 -0.02553125 0.09976875 -0.06841875 0.12838125l-2.46006875 1.6397875c-0.09845625 0.0656875 -0.2311 0.0001625 -0.2387625 -0.11795 -0.00020625 -0.00321875 -0.00031875 -0.00644375 -0.000325 -0.0096625v-6.15016875c-0.0000125 -0.1170625 -0.04453125 -0.2297375 -0.1245375 -0.31519375L1.12123125 1.95155c-0.07813125 -0.08890625 -0.03071875 -0.22905 0.0853375 -0.2522625 0.00911875 -0.001825 0.018375 -0.00281875 0.02766875 -0.00296875h13.5303625c0.06148125 -0.002175 0.1177375 0.03440625 0.1406875 0.0914875 0.026 0.0534625 0.0162 0.1174375 -0.0246 0.16066875Z" stroke-width="0.0625"></path>
</svg>