<svg xmlns="http://www.w3.org/2000/svg" viewBox="0 0 16 16" fill="#000000" id="Text-Aa-Thin--Streamline-Phosphor-Thin" height="16" width="16">
  <desc>
    Text Aa Thin Streamline Icon: https://streamlinehq.com
  </desc>
  <path d="M5.17193125 3.11789375c-0.0917125 -0.19509375 -0.360225 -0.21775 -0.483325 -0.04078125 -0.00898125 0.0129125 -0.01685625 0.02655 -0.02355 0.04078125L0.1844375 12.6392125c-0.0879625 0.19680625 0.07010625 0.4150375 0.28453125 0.39281875 0.0958 -0.00993125 0.179775 -0.06839375 0.22234375 -0.1547875l1.24196875 -2.6393625h5.970425l1.24196875 2.6393625c0.08796875 0.19680625 0.356 0.2245875 0.48245625 0.05 0.06089375 -0.08406875 0.0702875 -0.19491875 0.0244125 -0.2880375ZM2.19721875 9.6778l2.721275 -5.78349375 2.721275 5.78349375Zm11.12243125 -3.3604625c-0.8170125 0 -1.4485 0.21563125 -1.87765625 0.6412875 -0.15305625 0.15198125 -0.08419375 0.41265625 0.12395 0.46921875 0.0966 0.02625 0.19986875 -0.00103125 0.27090625 -0.0715625 0.31994375 -0.31784375 0.8191125 -0.47886875 1.4828 -0.47886875 1.08095 0 1.960275 0.75400625 1.960275 1.6802375v0.8345125c-0.50754375 -0.540675 -1.21875625 -0.84344375 -1.960275 -0.83451875 -1.3896875 0 -2.52034375 1.00464375 -2.52034375 2.2403125s1.13065625 2.24030625 2.52034375 2.24030625c0.74151875 0.00893125 1.45273125 -0.2938375 1.960275 -0.8345125v0.554475c0 0.215575 0.2333625 0.35030625 0.42005625 0.24251875 0.08664375 -0.05001875 0.14001875 -0.14246875 0.14001875 -0.24251875v-4.20058125c0 -1.23496875 -1.13065625 -2.24030625 -2.52035 -2.24030625Zm0 6.16085c-1.08095 0 -1.96026875 -0.75400625 -1.96026875 -1.68023125s0.87931875 -1.68023125 1.96026875 -1.68023125 1.960275 0.754 1.960275 1.68023125 -0.879325 1.68023125 -1.960275 1.68023125Z" stroke-width="0.0625"></path>
</svg>