<svg xmlns="http://www.w3.org/2000/svg" viewBox="0 0 16 16" fill="#000000" id="Globe-Hemisphere-West-Thin--Streamline-Phosphor-Thin" height="16" width="16">
  <desc>
    Globe Hemisphere West Thin Streamline Icon: https://streamlinehq.com
  </desc>
  <path d="M8 0.16c-6.0352375 0 -9.80725625 6.53333125 -6.7896375 11.76 3.01761875 5.22666875 10.56165625 5.22666875 13.579275 0C15.47774375 10.72816875 15.84 9.37620625 15.84 8 15.83525 3.67205625 12.32794375 0.16475 8 0.16ZM15.2128 8c0.0010125 1.04996875 -0.22861875 2.0873375 -0.67266875 3.03878125l-3.8118125 -2.34494375c-0.1119 -0.06861875 -0.23685 -0.1132 -0.3669125 -0.130925l-1.7890875 -0.2406875c-0.41363125 -0.05574375 -0.8145375 0.16769375 -0.9847 0.5488l-0.0313625 0.06899375h-0.87808125c-0.12026875 -0.00005625 -0.22991875 -0.0688875 -0.2822375 -0.1771875l-0.29791875 -0.616225c-0.12569375 -0.26130625 -0.365475 -0.4495375 -0.64915625 -0.5096l-1.049775 -0.22500625 0.83104375 -1.4504c0.0561 -0.09716875 0.15984375 -0.1569625 0.27204375 -0.1568h1.3100625c0.15908125 -0.000125 0.31553125 -0.0405875 0.454725 -0.1176l0.9596125 -0.52998125c0.0635125 -0.0347625 0.12271875 -0.0768625 0.1764 -0.12544375l2.10974375 -1.90825625c0.32516875 -0.29400625 0.40418125 -0.773625 0.1905125 -1.1564l-0.459425 -0.8224125C13.2055875 2.1185625 15.2088 4.882225 15.2128 8ZM9.402575 0.9244l0.75264375 1.34848125c0.0713625 0.12765 0.0450125 0.2876875 -0.06350625 0.385725l-2.10974375 1.90825625c-0.0181 0.0158625 -0.03780625 0.0297875 -0.0588 0.04155625l-0.95961875 0.52998125c-0.04631875 0.02563125 -0.098375 0.0391125 -0.15130625 0.0392H5.502175c-0.3366125 -0.00049375 -0.6478375 0.1788875 -0.81614375 0.4704l-0.929825 1.62288125c-0.09916875 -0.02548125 -0.17965625 -0.097775 -0.2156 -0.19365l-0.9008125 -2.40139375c-0.0290125 -0.0760375 -0.027325 -0.160375 0.0047 -0.2352l0.88670625 -2.10033125C4.80235 1.332225 6.37764375 0.7847375 8 0.7872c0.47086875 0.00010625 0.9406125 0.04605625 1.402575 0.1372ZM0.7872 8c-0.00225 -1.6303125 0.55076875 -3.21279375 1.568 -4.48683125l-0.2908625 0.686c-0.093575 0.22171875 -0.098625 0.4708625 -0.0141125 0.69619375l0.90081875 2.404525c0.11168125 0.30076875 0.369725 0.52330625 0.68364375 0.58956875l1.6801125 0.361425c0.09449375 0.02033125 0.174325 0.0831 0.2163875 0.170125l0.29791875 0.616225c0.15819375 0.32368125 0.48645625 0.52945 0.84671875 0.53076875h0.598975l-0.7644 1.7130375c-0.15504375 0.34784375 -0.0851 0.75484375 0.17718125 1.0309625l1.5429125 1.58838125c0.0679125 0.07305625 0.09701875 0.1740625 0.0784 0.27205l-0.20226875 1.04036875H8C4.018275 15.20848125 0.79151875 11.981725 0.7872 8Zm7.9654375 7.1736 0.1709125 -0.8851375c0.05691875 -0.29594375 -0.0304125 -0.6013125 -0.2352 -0.8224125l-1.5429125 -1.5883875c-0.08515625 -0.09228125 -0.1070625 -0.22646875 -0.0556625 -0.3410375l1.07408125 -2.41001875c0.05675 -0.126725 0.19008125 -0.20104375 0.3277125 -0.18266875l1.7890875 0.2406875c0.04331875 0.0062 0.08493125 0.02113125 0.12230625 0.0439l3.85021875 2.36768125c-1.1547375 2.00460625 -3.19989375 3.33471875 -5.50054375 3.57739375Z" stroke-width="0.0625"></path>
</svg>