<svg xmlns="http://www.w3.org/2000/svg" viewBox="0 0 16 16" fill="#000000" id="Info-Thin--Streamline-Phosphor-Thin" height="16" width="16">
  <desc>
    Info Thin Streamline Icon: https://streamlinehq.com
  </desc>
  <path d="M8.9408 11.7632c0 0.17319375 -0.14040625 0.31359375 -0.3136 0.3136 -0.51960625 0.000025 -0.9408 -0.42119375 -0.9408 -0.9408V8c0 -0.17319375 -0.14040625 -0.31359375 -0.3136 -0.3136 -0.2414125 -0.0000125 -0.39229375 -0.26135 -0.27158125 -0.4704125 0.056025 -0.09701875 0.15955 -0.1567875 0.27158125 -0.1567875 0.519575 0.000025 0.9408 0.421225 0.9408 0.9408v3.136c0 0.1732 0.1404 0.31360625 0.3136 0.3136 0.17319375 0.00000625 0.3136 0.14040625 0.3136 0.3136ZM7.6864 5.1776c0.48281875 0 0.78458125 -0.52266875 0.54316875 -0.9408 -0.24140625 -0.41813125 -0.84493125 -0.41813125 -1.0863375 0 -0.05505 0.09534375 -0.08403125 0.20350625 -0.08403125 0.3136 0 0.34639375 0.28080625 0.6272 0.6272 0.6272ZM15.84 8c0 6.0352375 -6.53333125 9.80725625 -11.76 6.7896375 -5.22666875 -3.01761875 -5.22666875 -10.56165625 0 -13.579275C5.27183125 0.52225625 6.62379375 0.16 8 0.16c4.32794375 0.00475 7.83525 3.51205625 7.84 7.84Zm-0.6272 0c0 -5.55241875 -6.01066875 -9.022675 -10.8192 -6.24646875 -4.80853125 2.77620625 -4.80853125 9.71673125 0 12.4929375 1.09648125 0.63305625 2.3402875 0.96633125 3.6064 0.96633125 3.981725 -0.00431875 7.20848125 -3.231075 7.2128 -7.2128Z" stroke-width="0.0625"></path>
</svg>