<svg xmlns="http://www.w3.org/2000/svg" viewBox="0 0 16 16" fill="#000000" id="Translate-Thin--Streamline-Phosphor-Thin" height="16" width="16">
  <desc>
    Translate Thin Streamline Icon: https://streamlinehq.com
  </desc>
  <path d="m15.8092625 14.54801875 -4.06511875 -8.13024375c-0.09970625 -0.20005 -0.3785875 -0.21715 -0.5019875 -0.030775 -0.00654375 0.0098875 -0.01248125 0.0201625 -0.01776875 0.030775l-1.66016875 3.3239625c-1.47255625 -0.041275 -2.89020625 -0.5680125 -4.03245 -1.4982875 1.32185625 -1.292675 2.09875 -3.0423125 2.17120625 -4.88975625h2.03909375c0.223525 -0.0000125 0.36323125 -0.2419875 0.25145625 -0.4355625 -0.05186875 -0.08983125 -0.147725 -0.14516875 -0.25145625 -0.14516875H5.38658125V1.32113125c0 -0.223525 -0.24196875 -0.363225 -0.43554375 -0.2514625 -0.08984375 0.05186875 -0.1451875 0.147725 -0.1451875 0.2514625v1.45183125H0.45036875c-0.223525 0 -0.36323125 0.24196875 -0.25146875 0.43554375 0.05186875 0.0898375 0.14773125 0.14518125 0.25146875 0.1451875h6.671875c-0.073475 1.7055125 -0.798675 3.31779375 -2.026025 4.50429375 -0.74195625 -0.71691875 -1.30771875 -1.596 -1.65290625 -2.56828125 -0.0672125 -0.21318125 -0.33999375 -0.27365625 -0.49100625 -0.10885625 -0.0748375 0.0816625 -0.0966875 0.19879375 -0.0563375 0.30195 0.36929375 1.04229375 0.97275625 1.9859875 1.763975 2.758475 -1.18803125 0.9708875 -2.6752875 1.50100625 -4.209575 1.5004625 -0.223525 0.0000125 -0.36323125 0.2419875 -0.2514625 0.4355625 0.05186875 0.089825 0.14773125 0.1451625 0.2514625 0.14516875 1.69850625 0.001875 3.3433875 -0.59465 4.64585 -1.68485 1.18299375 0.986075 2.648725 1.5707375 4.18561875 1.66960625l-2.12111875 4.24151875c-0.100025 0.20005 0.05401875 0.43336875 0.2772875 0.41996875 0.1036125 -0.00621875 0.19604375 -0.06725 0.24246875 -0.16009375l1.07943125 -2.163225h5.4487125l1.0808875 2.1625c0.0492375 0.09839375 0.14985625 0.16050625 0.259875 0.160425 0.0450625 -0.00024375 0.08948125 -0.0106625 0.12994375 -0.0304875 0.14360625 -0.0716875 0.2018125 -0.24629375 0.1299375 -0.3898125Zm-6.7589875 -2.48335625 2.4339875 -4.86798125 2.43399375 4.86798125Z" stroke-width="0.0625"></path>
</svg>