<svg xmlns="http://www.w3.org/2000/svg" viewBox="0 0 16 16" fill="#000000" id="Sign-Out-Thin--Streamline-Phosphor-Thin" height="16" width="16">
  <desc>
    Sign Out Thin Streamline Icon: https://streamlinehq.com
  </desc>
  <path d="M6.29555 15.499c0 0.18825625 -0.1526125 0.34086875 -0.34086875 0.34086875H0.5008625c-0.18825 0 -0.3408625 -0.1526125 -0.3408625 -0.34086875V0.501c0 -0.1882625 0.15260625 -0.340875 0.3408625 -0.34086875h5.45381875c0.2624 0 0.4264 0.28405625 0.2952 0.5113 -0.0608875 0.1054625 -0.17341875 0.17043125 -0.2952 0.17043125H0.841725v14.316275h5.11295625c0.18825 0.0000125 0.34086875 0.15261875 0.34086875 0.3408625Zm9.44448125 -7.7401625 -3.4086375 -3.4086375c-0.18565 -0.18564375 -0.50264375 -0.10070625 -0.57059375 0.15289375 -0.0315375 0.11769375 0.0021125 0.24326875 0.08826875 0.32943125l2.8266125 2.8266125H5.95468125c-0.26239375 0.0000125 -0.42639375 0.28406875 -0.2951875 0.51130625 0.06089375 0.10545625 0.17341875 0.17041875 0.2951875 0.17041875h8.721l-2.8266125 2.8266125c-0.18564375 0.18564375 -0.10070625 0.50264375 0.15289375 0.57059375 0.11769375 0.0315375 0.24326875 -0.0021125 0.32943125 -0.08826875l3.4086375 -3.4086375c0.13329375 -0.13315 0.13329375 -0.349175 0 -0.482325Z" stroke-width="0.0625"></path>
</svg>