<svg viewBox="0 0 24 24" fill="none" xmlns="http://www.w3.org/2000/svg" id="Music-Library-2--Streamline-Solar-Ar" height="24" width="24">
  <desc>
    Music Library 2 Streamline Icon: https://streamlinehq.com
  </desc>
  <path d="M2.38351 13.793c-0.44603 -3.1636 -0.66904 -4.74535 0.27881 -5.76917C3.61017 7 5.29758 7 8.67239 7h6.65521c3.3748 0 5.0622 0 6.0101 1.02383 0.9478 1.02382 0.7248 2.60557 0.2788 5.76917l-0.423 3c-0.3498 2.4809 -0.5246 3.7213 -1.4218 4.4642C18.8745 22 17.5512 22 14.9046 22H9.09536c-2.64655 0 -3.96983 0 -4.86702 -0.7428 -0.89719 -0.7429 -1.07208 -1.9833 -1.42186 -4.4642l-0.42297 -3Z" stroke="#000000" stroke-width="1.5"></path>
  <path d="M12 17c0 0.8284 -0.6716 1.5 -1.5 1.5 -0.82843 0 -1.5 -0.6716 -1.5 -1.5s0.67157 -1.5 1.5 -1.5c0.8284 0 1.5 0.6716 1.5 1.5Zm0 0v-6.5c0 1.6569 1.8954 3 3 3" stroke="#000000" stroke-linecap="round" stroke-linejoin="round" stroke-width="1.5"></path>
  <path d="M19.5619 7c0.2286 -1.30477 -0.7754 -2.5 -2.1 -2.5H6.53806C5.21341 4.5 4.2094 5.69523 4.43803 7" stroke="#000000" stroke-width="1.5"></path>
  <path d="M17.5 4.5c0.0284 -0.25908 0.0426 -0.38865 0.0428 -0.49565 0.0022 -1.02363 -0.7688 -1.88371 -1.7866 -1.99293C15.6498 2 15.5195 2 15.2588 2H8.74105c-0.26064 0 -0.39097 0 -0.49737 0.01142 -1.01778 0.10922 -1.78881 0.9693 -1.78658 1.99292 0.00023 0.10701 0.01442 0.23656 0.04279 0.49566" stroke="#000000" stroke-width="1.5"></path>
</svg>