<svg xmlns="http://www.w3.org/2000/svg" viewBox="0 0 16 16" fill="#000000" id="Plus-Light--Streamline-Phosphor" height="16" width="16">
  <desc>
    Plus Light Streamline Icon: https://streamlinehq.com
  </desc>
  <path d="M15.84 8c0 0.276375 -0.22405 0.500425 -0.500425 0.500425H8.500425v6.83915c0 0.385225 -0.41701875 0.62599375 -0.7506375 0.43338125 -0.15483125 -0.08939375 -0.2502125 -0.2546 -0.2502125 -0.43338125V8.500425H0.660425c-0.385225 0 -0.62599375 -0.41701875 -0.43338125 -0.7506375 0.08939375 -0.15483125 0.25459375 -0.2502125 0.43338125 -0.2502125h6.83915V0.660425c0 -0.385225 0.41701875 -0.62599375 0.7506375 -0.43338125 0.15483125 0.08939375 0.2502125 0.25459375 0.2502125 0.43338125v6.83915h6.83915c0.27636875 0.0000125 0.500425 0.22405625 0.500425 0.500425Z" stroke-width="0.0625"></path>
</svg>