<svg xmlns="http://www.w3.org/2000/svg" viewBox="0 0 16 16" fill="#000000" id="Floppy-Disk-Light--Streamline-Phosphor" height="16" width="16">
  <desc>
    Floppy Disk Light Streamline Icon: https://streamlinehq.com
  </desc>
  <path d="M15.4980375 3.4478 12.5522 0.5019625c-0.21826875 -0.21955 -0.51528125 -0.34268125 -0.82486875 -0.3419625H1.3276625C0.68278125 0.16 0.16 0.68278125 0.16 1.3276625v13.344675c0 0.64490625 0.52275625 1.16769375 1.1676625 1.1676625h13.344675c0.6448625 -0.00003125 1.1676625 -0.5228 1.1676625 -1.1676625V4.27266875c0.00071875 -0.3095875 -0.1224125 -0.6066 -0.3419625 -0.82486875Zm-3.9950625 11.39135H4.49701875v-4.83744375c0 -0.09213125 0.07468125 -0.16681875 0.1668125 -0.1668125h6.6723375c0.092125 0.00000625 0.16680625 0.0746875 0.16680625 0.1668125Zm3.33616875 -0.1668125c0 0.09213125 -0.07468125 0.1668125 -0.16680625 0.1668125h-2.1685125v-4.83744375c0 -0.6448625 -0.5228 -1.16763125 -1.16765625 -1.1676625H4.66383125c-0.6449 -0.00003125 -1.1676625 0.52275625 -1.1676625 1.1676625v4.83744375H1.3276625c-0.09213125 0 -0.1668125 -0.07468125 -0.1668125 -0.1668125V1.3276625c0 -0.09213125 0.07468125 -0.1668125 0.1668125 -0.16680625h10.39966875c0.04405 -0.0000375 0.086325 0.01735 0.1176 0.048375l2.9458375 2.9458375c0.031025 0.031275 0.0484125 0.07355 0.048375 0.1176ZM10.502125 3.3293625c0 0.27638125 -0.22405 0.500425 -0.500425 0.500425H5.3310625c-0.385225 -0.00043125 -0.62553125 -0.41771875 -0.43254375 -0.75111875 0.08936875 -0.1543875 0.25415625 -0.24953125 0.43254375 -0.24973125h4.6706375c0.276375 0 0.500425 0.22405 0.500425 0.500425Z" stroke-width="0.0625"></path>
</svg>