<svg viewBox="0 0 24 24" fill="none" xmlns="http://www.w3.org/2000/svg" id="Clipboard-Add--Streamline-Solar-Ar" height="24" width="24">
  <desc>
    Clipboard Add Streamline Icon: https://streamlinehq.com
  </desc>
  <path d="M16 4c2.175 0.01211 3.3529 0.10856 4.1213 0.87694C21 5.75562 21 7.16983 21 9.99826v6.00004c0 2.8284 0 4.2426 -0.8787 5.1213 -0.8787 0.8787 -2.2929 0.8787 -5.1213 0.8787H9c-2.82843 0 -4.24264 0 -5.12132 -0.8787C3 20.2409 3 18.8267 3 15.9983V9.99826c0 -2.82843 0 -4.24264 0.87868 -5.12132C4.64706 4.10856 5.82497 4.01211 8 4" stroke="#000000" stroke-width="1.5"></path>
  <path d="M8 3.5C8 2.67157 8.67157 2 9.5 2h5c0.8284 0 1.5 0.67157 1.5 1.5v1c0 0.82843 -0.6716 1.5 -1.5 1.5h-5C8.67157 6 8 5.32843 8 4.5v-1Z" stroke="#000000" stroke-width="1.5"></path>
  <path d="m15 13 -3 0m0 0 -3 0m3 0 0 -3m0 3 0 3" stroke="#000000" stroke-linecap="round" stroke-width="1.5"></path>
</svg>