<svg xmlns="http://www.w3.org/2000/svg" fill="none" viewBox="0 0 48 48" id="Settings-Outline--Streamline-Ionic-Outline" height="48" width="48">
  <desc>
    Settings Outline Streamline Icon: https://streamlinehq.com
  </desc>
  <path stroke="#000000" stroke-linecap="round" stroke-linejoin="round" d="M24.6432 17.487c-1.3428 -0.1327 -2.6938 0.1531 -3.8679 0.8178 -1.1743 0.665 -2.1143 1.6765 -2.6913 2.8962 -0.5771 1.2197 -0.7631 2.5881 -0.5325 3.9174 0.2306 1.3296 0.8665 2.5553 1.8206 3.5094s2.18 1.5901 3.5094 1.8207c1.3295 0.2306 2.6978 0.0445 3.9174 -0.5325 1.2198 -0.577 2.2313 -1.5171 2.8962 -2.6913 0.6648 -1.1741 0.9505 -2.5252 0.8178 -3.8679 -0.151 -1.5053 -0.8182 -2.9121 -1.8879 -3.9819 -1.0697 -1.0697 -2.4765 -1.7367 -3.9818 -1.8879ZM40.4017 24c-0.0042 0.7114 -0.0566 1.4217 -0.1566 2.126l4.6233 3.6262c0.2013 0.1668 0.3369 0.3997 0.3828 0.6572 0.0458 0.2574 -0.0011 0.5228 -0.1323 0.7489l-4.3737 7.5673c-0.1328 0.2239 -0.3404 0.3938 -0.5863 0.4797 -0.2458 0.0859 -0.5141 0.0822 -0.7574 -0.0103L34.81 37.3461c-0.2532 -0.1008 -0.5275 -0.1372 -0.7982 -0.106 -0.2708 0.0313 -0.5294 0.1291 -0.7531 0.285 -0.7008 0.4825 -1.4371 0.9112 -2.2028 1.2823 -0.2406 0.1169 -0.4488 0.2915 -0.6061 0.5079 -0.1573 0.2165 -0.2589 0.4685 -0.2957 0.7335l-0.6882 4.8973c-0.0452 0.2586 -0.1789 0.4935 -0.3782 0.6646 -0.1991 0.1709 -0.4515 0.2676 -0.714 0.2731h-8.7474c-0.2582 -0.0044 -0.5071 -0.0967 -0.7058 -0.2615 -0.1987 -0.165 -0.3354 -0.3926 -0.3874 -0.6455l-0.6872 -4.8901c-0.0385 -0.268 -0.1428 -0.5223 -0.3033 -0.7403 -0.1606 -0.218 -0.3725 -0.3929 -0.617 -0.5093 -0.7647 -0.3693 -1.4986 -0.799 -2.1945 -1.2855 -0.2229 -0.155 -0.4807 -0.2521 -0.7506 -0.2827 -0.2697 -0.0305 -0.5428 0.0065 -0.7946 0.1078l-4.5905 1.8479c-0.2433 0.0926 -0.5114 0.0965 -0.7572 0.0107 -0.2458 -0.0855 -0.4535 -0.2553 -0.5864 -0.4791L2.878 31.1889c-0.1314 -0.2261 -0.1784 -0.4915 -0.1326 -0.7489 0.0459 -0.2575 0.1817 -0.4904 0.3832 -0.6572L7.036 26.715c0.214 -0.1699 0.3823 -0.3906 0.4894 -0.642 0.1072 -0.2515 0.1498 -0.5257 0.1241 -0.7978 -0.0368 -0.4264 -0.0593 -0.8518 -0.0593 -1.2782 0 -0.4265 0.0215 -0.8458 0.0593 -1.263 0.0229 -0.2704 -0.0218 -0.5424 -0.1302 -0.7912 -0.1083 -0.2489 -0.2769 -0.4668 -0.4905 -0.6343l-3.9053 -3.0678c-0.1983 -0.1676 -0.3312 -0.3997 -0.3755 -0.6554 -0.0443 -0.2557 0.0028 -0.519 0.1331 -0.7435l4.3737 -7.5673c0.1328 -0.2241 0.3404 -0.3939 0.5863 -0.4798 0.2457 -0.0859 0.514 -0.0822 0.7573 0.0103l4.5916 1.8489c0.2532 0.1009 0.5274 0.1373 0.7982 0.1061 0.2707 -0.0313 0.5295 -0.1292 0.753 -0.285 0.7008 -0.4826 1.4371 -0.9113 2.2027 -1.2823 0.2408 -0.1171 0.449 -0.2915 0.6063 -0.508 0.1573 -0.2165 0.2588 -0.4685 0.2957 -0.7335l0.6882 -4.8973c0.0452 -0.2587 0.1789 -0.4936 0.378 -0.6646 0.1993 -0.171 0.4516 -0.2676 0.7142 -0.2731h8.7474c0.2582 0.0044 0.5071 0.0967 0.7057 0.2616 0.1987 0.1649 0.3353 0.3925 0.3875 0.6454l0.6871 4.8901c0.0385 0.2681 0.1427 0.5223 0.3034 0.7403 0.1606 0.218 0.3725 0.393 0.6169 0.5094 0.7648 0.3691 1.4987 0.7989 2.1947 1.2854 0.2228 0.155 0.4806 0.2521 0.7503 0.2827 0.2698 0.0305 0.5429 -0.0066 0.7948 -0.1079l4.5905 -1.8478c0.2433 -0.0927 0.5114 -0.0965 0.7573 -0.0108 0.2458 0.0857 0.4534 0.2554 0.5864 0.4791l4.3737 7.5673c0.1314 0.2261 0.1784 0.4915 0.1326 0.749 -0.0459 0.2575 -0.1817 0.4903 -0.3832 0.6571l-3.9073 3.0678c-0.215 0.1694 -0.3843 0.3899 -0.4924 0.6413 -0.1081 0.2514 -0.1515 0.5261 -0.1264 0.7986 0.0337 0.4233 0.0564 0.8487 0.0564 1.2752Z" stroke-width="3"></path>
</svg>