<svg xmlns="http://www.w3.org/2000/svg" fill="none" viewBox="0 0 48 48" id="Bulb-Outline--Streamline-Ionic-Outline" height="48" width="48">
  <desc>
    Bulb Outline Streamline Icon: https://streamlinehq.com
  </desc>
  <path stroke="#000000" stroke-linecap="round" stroke-linejoin="round" d="M28.5001 36.0001v-2.25c0 -2.7187 2.9569 -5.2903 4.875 -7.125 2.7037 -2.5847 4.125 -6.0572 4.125 -10.125 0 -7.50004 -5.9747 -13.50005 -13.5 -13.50005 -1.7743 -0.00495 -3.5321 0.34086 -5.1721 1.01755 -1.6402 0.67669 -3.1303 1.6709 -4.385 2.92548 -1.2546 1.25457 -2.2488 2.74477 -2.9255 4.38492 -0.6767 1.6401 -1.0224 3.3978 -1.0174 5.1721 0 3.9225 1.4821 7.6303 4.125 10.125 1.9078 1.801 4.875 4.3782 4.875 7.125v2.25" stroke-width="3"></path>
  <path stroke="#000000" stroke-linecap="round" stroke-linejoin="round" d="M21.0005 45.0007h6.0006" stroke-width="3"></path>
  <path stroke="#000000" stroke-linecap="round" stroke-linejoin="round" d="M19.5007 40.5005h9.001" stroke-width="3"></path>
  <path stroke="#000000" stroke-linecap="round" stroke-linejoin="round" d="M23.9998 36.001v-12" stroke-width="3"></path>
  <path stroke="#000000" stroke-linecap="round" stroke-linejoin="round" d="M27.5632 22.5002s-2.0167 1.5002 -3.5628 1.5002 -3.5629 -1.5002 -3.5629 -1.5002" stroke-width="3"></path>
</svg>